# xmcd
#
# Track frame offsets: 
#        150
#        9585
#        24130
#        43332
#        65632
#        81565
#        99985
#        125145
#        144290
#        163485
#        184122
#        201387
#        221737
#        240102
#        261945
#        280900
#        292777
#
# Disc length: 4188 seconds
#
# Revision: 42
# Processed by: cddbd v1.5.2PL0 Copyright (c) Steve Scherf et al.
# Submitted via: ExactAudioCopy v1.3
#
DISCID=fe105a11
DTITLE=Destiny's Child - The Writing's On The Wall
DYEAR=1999
DGENRE=R&B
TTITLE0=Intro (The Writing's On The Wall)
TTITLE1=So Good
TTITLE2=Bills, Bills, Bills
TTITLE3=Confessions (feat Missy Elliott)
TTITLE4=Bug A Boo
TTITLE5=Temptation
TTITLE6=Now That She's Gone
TTITLE7=Where'd You Go
TTITLE8=Hey Ladies
TTITLE9=If You Leave (feat Next)
TTITLE10=Jumpin, Jumpin
TTITLE11=Say My Name
TTITLE12=She Can't Love You
TTITLE13=Stay
TTITLE14=Sweet Sixteen
TTITLE15=Outro (Amazing Grace... Dedicated To Andretta Tillman)
TTITLE16=Get On The Bus
EXTD=YEAR: 1999
EXTT0=
EXTT1=
EXTT2=
EXTT3=
EXTT4=
EXTT5=
EXTT6=
EXTT7=
EXTT8=
EXTT9=
EXTT10=
EXTT11=
EXTT12=
EXTT13=
EXTT14=
EXTT15=
EXTT16=
PLAYORDER=
